<svg xmlns="http://www.w3.org/2000/svg" fill="none" viewBox="0 0 241 60">
    <g clip-path="url(#a)">
        <rect width="108" height="35" x="121" y="13" fill="#000" rx="8"/>
        <path fill="#fff" d="M142.73 40h-7.168v-3.472h7.084c3.528 0 6.356-2.856 6.356-6.356 0-3.528-2.828-6.356-6.356-6.356h-7.084v-3.472h7.084c5.432 0 9.828 4.396 9.828 9.828 0 5.404-4.368 9.772-9.744 9.828Zm21.86-19.852c5.516 0 10.024 4.48 10.024 10.024 0 5.516-4.508 10.024-10.024 10.024-5.544 0-10.024-4.508-10.024-10.024 0-5.544 4.48-10.024 10.024-10.024Zm0 16.576c3.584 0 6.552-2.996 6.552-6.58s-2.968-6.524-6.552-6.524c-3.584 0-6.552 2.94-6.552 6.524s2.968 6.58 6.552 6.58ZM193.626 40h-7.14c-5.404-.056-9.772-4.424-9.772-9.828 0-5.432 4.396-9.828 9.8-9.828h7.112v3.472h-7.112c-3.5 0-6.328 2.828-6.328 6.356 0 3.5 2.828 6.356 6.328 6.356h7.112V40Zm8.571-19.656h10.332v3.472h-10.332c-3.024 0-3.024 4.62 0 4.62h6.44c3.192 0 5.796 2.576 5.796 5.768 0 3.192-2.604 5.796-5.796 5.796h-10.864v-3.472h10.864c3.052 0 3.052-4.62 0-4.62h-6.58c-3.136-.084-5.628-2.632-5.628-5.796 0-3.192 2.576-5.768 5.768-5.768Z"/>
        <path fill="#000" d="m36.3095 32.84 6.48 12.16h-5.6l-2.76-5.28c-1.52-2.6-3-6.28-4.64-6.28h-3.28c-1.8 0-3.28 1.48-3.28 3.28V45h-4.96v-8.28c0-4.56 3.68-8.24 8.24-8.24h6.68c4.36 0 4.36-6.6 0-6.6h-14.92v-4.96h14.92c9.04 0 11.44 12.52 3.12 15.92ZM46.7852 45V16.96h4.96V45h-4.96Zm16.8253-14c-1.92-2.12-3.08-4.96-3.92-6.48l-3.96-7.56h5.6l2.76 5.24c1.48 2.6 3 6.32 4.64 6.32 3.96 0 3.24.48 6.96-6.32l2.76-5.24h5.6l-3.96 7.56c-.84 1.52-2 4.36-3.92 6.48 1.92 2.08 3.08 4.92 3.92 6.44l3.96 7.56h-5.6l-2.76-5.24c-1.48-2.6-3-6.28-4.64-6.28-3.96 0-3.24-.48-6.96 6.28l-2.76 5.24h-5.6l3.96-7.56c.84-1.52 2-4.36 3.92-6.44Zm32.7047 9.04h10.3998V45H96.3152c-4.56 0-8.28-3.72-8.28-8.28V16.96h4.96v19.76c0 1.84 1.48 3.32 3.32 3.32Z"/>
    </g>
    <defs>
        <clipPath id="a">
            <path fill="#fff" d="M0 0h241v60H0z"/>
        </clipPath>
    </defs>
</svg>