<svg xmlns="http://www.w3.org/2000/svg" fill="none" viewBox="0 0 119 20">
    <g fill="#000" clip-path="url(#a)">
        <rect width="64" height="20" x="55" mask="url(#b)" rx="4"/>
        <path d="M10.4405 11.008 14.1665 18h-3.22l-1.587-3.036c-.874-1.495-1.725-3.611-2.668-3.611h-1.886c-1.035 0-1.886.851-1.886 1.886V18H.0675v-4.761c0-2.622 2.116-4.738 4.738-4.738h3.841c2.507 0 2.507-3.795 0-3.795H.0675V1.854h8.579c5.198 0 6.578 7.199 1.794 9.154ZM16.464 18V1.877h2.852V18h-2.852Zm9.6745-8.05c-1.104-1.219-1.771-2.852-2.254-3.726l-2.277-4.347h3.22l1.587 3.013c.851 1.495 1.725 3.634 2.668 3.634 2.277 0 1.863.276 4.002-3.634l1.587-3.013h3.22l-2.277 4.347c-.483.874-1.15 2.507-2.254 3.726 1.104 1.196 1.771 2.829 2.254 3.703L37.8915 18h-3.22l-1.587-3.013c-.851-1.495-1.725-3.611-2.668-3.611-2.277 0-1.863-.276-4.002 3.611L24.8275 18h-3.22l2.277-4.347c.483-.874 1.15-2.507 2.254-3.703Zm18.8052 5.198h5.98V18h-5.98c-2.622 0-4.761-2.139-4.761-4.761V1.877h2.852v11.362c0 1.058.851 1.909 1.909 1.909Z"/>
    </g>
    <defs>
        <clipPath id="a">
            <path d="M0 0h119v20H0z"/>
        </clipPath>
        <mask id="b">
            <rect width="64" height="20" x="55" fill="#fff" rx="4"/>
            <path fill="#000" d="M67.4076 16h-4.352v-2.108h4.301c2.142 0 3.859-1.734 3.859-3.859 0-2.142-1.717-3.859-3.859-3.859h-4.301V4.066h4.301c3.298 0 5.967 2.669 5.967 5.967 0 3.281-2.652 5.933-5.916 5.967ZM80.6797 3.947c3.349 0 6.086 2.72 6.086 6.086 0 3.349-2.737 6.086-6.086 6.086-3.366 0-6.086-2.737-6.086-6.086 0-3.366 2.72-6.086 6.086-6.086Zm0 10.064c2.176 0 3.978-1.819 3.978-3.995s-1.802-3.961-3.978-3.961-3.978 1.785-3.978 3.961 1.802 3.995 3.978 3.995ZM98.3089 16h-4.335c-3.281-.034-5.933-2.686-5.933-5.967 0-3.298 2.669-5.967 5.95-5.967h4.318v2.108h-4.318c-2.125 0-3.842 1.717-3.842 3.859 0 2.125 1.717 3.859 3.842 3.859h4.318V16Zm5.2041-11.934h6.273v2.108h-6.273c-1.836 0-1.836 2.805 0 2.805h3.91c1.938 0 3.519 1.564 3.519 3.502 0 1.938-1.581 3.519-3.519 3.519h-6.596v-2.108h6.596c1.853 0 1.853-2.805 0-2.805h-3.995c-1.904-.051-3.417-1.598-3.417-3.519 0-1.938 1.564-3.502 3.502-3.502Z"/>
        </mask>
    </defs>
</svg>